<?xml version="1.0" standalone="no"?>
<!DOCTYPE svg PUBLIC "-//W3C//DTD SVG 20010904//EN"
 "http://www.w3.org/TR/2001/REC-SVG-20010904/DTD/svg10.dtd">
<svg version="1.0" xmlns="http://www.w3.org/2000/svg"
 width="3000.000000pt" height="3000.000000pt" viewBox="0 0 3000.000000 3000.000000"
 preserveAspectRatio="xMidYMid meet">

<g transform="translate(0.000000,3000.000000) scale(0.100000,-0.100000)"
fill="#FF0000" stroke="none">
<path d="M11575 20998 c-96 -9 -325 -55 -440 -87 -291 -82 -699 -263 -1080
-478 -398 -226 -1084 -667 -1650 -1062 -545 -379 -732 -492 -1050 -633 -127
-57 -320 -124 -455 -160 -202 -53 -431 -50 -617 7 -40 13 -73 21 -73 19 0 -1
13 -22 28 -46 16 -24 59 -88 95 -143 181 -275 413 -489 614 -567 267 -104 620
-67 933 98 162 86 301 183 610 431 409 326 483 385 785 614 1280 975 2070
1454 2464 1496 208 21 298 -118 245 -375 -22 -109 -80 -259 -209 -547 -282
-630 -449 -1014 -642 -1484 -128 -310 -301 -744 -353 -881 -15 -41 -76 -203
-135 -360 -398 -1060 -738 -2107 -979 -3020 -47 -177 -292 -1163 -406 -1630
-69 -283 -75 -348 -42 -440 26 -77 61 -128 144 -215 167 -176 388 -286 583
-289 77 -1 96 2 130 22 79 45 81 52 140 392 24 137 42 213 54 230 20 28 45 94
127 332 312 915 1109 2529 2022 4098 30 52 70 120 87 150 30 51 86 146 215
365 312 527 763 1242 1133 1795 250 373 619 895 625 881 3 -10 -141 -331 -383
-851 -417 -897 -546 -1181 -755 -1665 -652 -1508 -1006 -2615 -1134 -3550 -40
-286 -49 -685 -20 -804 59 -237 239 -450 491 -579 150 -77 252 -104 393 -104
63 0 128 4 144 9 56 17 70 53 106 283 72 456 467 1514 941 2525 110 234 425
868 535 1075 596 1126 1249 2165 1824 2905 160 206 233 296 236 292 3 -3 -475
-1129 -611 -1437 -279 -635 -579 -1457 -750 -2055 -67 -232 -196 -745 -235
-930 -38 -183 -90 -454 -109 -575 -5 -36 -17 -108 -25 -160 -35 -223 -72 -506
-101 -772 -14 -134 -14 -153 0 -208 62 -237 444 -593 672 -625 86 -11 100 2
188 176 84 166 77 139 129 514 14 99 35 273 46 388 38 390 61 510 201 1065 72
284 133 520 136 525 3 5 32 -42 65 -104 245 -465 696 -899 1193 -1147 335
-167 616 -242 968 -259 112 -5 127 -8 121 -22 -24 -60 -1373 -3648 -1406
-3740 -17 -47 -31 -107 -33 -135 -6 -105 40 -206 126 -279 52 -45 90 -63 183
-87 40 -10 101 -32 133 -49 149 -75 317 -112 533 -116 85 -2 182 0 215 4 33 5
85 12 115 16 75 9 254 56 375 98 363 126 723 342 1115 671 206 173 495 460
690 685 30 35 65 76 78 90 13 14 85 103 161 196 231 287 501 664 726 1015 50
76 92 190 102 270 5 39 2 50 -21 78 -36 41 -86 52 -134 26 -19 -10 -59 -48
-91 -84 -31 -36 -58 -67 -61 -70 -3 -3 -49 -59 -102 -126 -52 -66 -102 -127
-109 -135 -8 -8 -39 -43 -69 -79 -102 -121 -134 -155 -340 -361 -320 -321
-568 -516 -885 -699 -299 -172 -652 -299 -935 -335 -30 -4 -64 -9 -75 -11 -61
-12 -335 -15 -441 -5 -149 13 -184 20 -184 35 0 6 30 90 66 186 37 96 92 245
124 330 32 85 157 418 278 740 297 791 790 2101 919 2445 79 209 108 299 114
355 5 41 12 81 14 89 6 16 7 287 1 316 -2 11 -9 54 -16 95 -120 721 -793 1471
-1615 1798 -105 42 -279 93 -380 112 -33 6 -78 16 -100 20 -110 24 -341 31
-485 14 -131 -15 -232 -38 -334 -76 -43 -15 -80 -27 -82 -25 -7 7 160 488 296
852 256 685 486 1235 784 1878 142 307 142 317 -4 463 -98 97 -159 131 -356
199 -71 24 -160 55 -199 69 -99 36 -192 36 -266 -1 -60 -31 -80 -54 -348 -403
-914 -1192 -1721 -2435 -2336 -3600 -109 -205 -369 -728 -429 -860 -198 -438
-294 -663 -396 -925 -23 -60 -44 -112 -47 -115 -13 -13 25 131 149 570 196
689 539 1736 825 2519 41 113 92 253 113 311 245 674 662 1701 940 2315 78
173 81 182 78 242 -5 73 -11 82 -133 180 -96 78 -191 127 -345 178 -63 21
-136 48 -161 61 -57 29 -158 47 -212 39 -94 -14 -123 -39 -261 -220 -332 -439
-848 -1165 -1231 -1735 -731 -1086 -1463 -2361 -2062 -3590 -200 -410 -206
-421 -210 -416 -2 1 15 57 38 122 22 65 60 175 84 244 63 182 153 439 229 648
36 100 95 262 130 360 187 517 587 1568 849 2232 58 146 94 238 197 505 271
698 325 909 299 1170 -29 299 -168 551 -417 758 -264 221 -538 295 -937 255z"/>
</g>
</svg>
