<?xml version="1.0" standalone="no"?>
<!DOCTYPE svg PUBLIC "-//W3C//DTD SVG 20010904//EN"
 "http://www.w3.org/TR/2001/REC-SVG-20010904/DTD/svg10.dtd">
<svg version="1.0" xmlns="http://www.w3.org/2000/svg"
 width="1036.000000pt" height="504.000000pt" viewBox="0 0 1036.000000 504.000000"
 preserveAspectRatio="xMidYMid meet">

<g transform="translate(0.000000,504.000000) scale(0.100000,-0.100000)"
fill="#FF0000" stroke="none">
<path d="M2345 4765 c-142 -26 -424 -148 -615 -267 -58 -36 -193 -123 -300
-193 -339 -224 -534 -337 -640 -372 -117 -39 -221 -54 -284 -42 -26 5 -52 12
-58 15 -15 10 -5 -7 58 -92 91 -124 182 -184 294 -192 78 -5 188 17 261 54 48
24 199 135 399 294 204 162 222 175 450 327 259 172 303 198 422 247 110 46
176 49 215 10 23 -23 25 -31 19 -74 -8 -58 -18 -84 -103 -260 -158 -327 -314
-705 -483 -1175 -155 -431 -205 -599 -390 -1331 l-64 -250 20 -40 c24 -45 114
-113 183 -138 63 -22 137 -21 150 1 5 10 23 71 40 135 59 221 194 548 368 888
338 660 521 965 1032 1715 161 236 200 285 153 190 -410 -826 -518 -1074 -693
-1597 -81 -242 -159 -608 -159 -748 0 -65 5 -86 30 -136 58 -116 162 -193 272
-202 87 -7 106 1 113 46 15 89 80 297 136 431 259 622 404 922 622 1286 176
292 415 629 556 785 l41 45 -14 -35 c-7 -19 -66 -147 -131 -285 -206 -441
-385 -911 -459 -1210 -50 -199 -106 -550 -109 -675 -2 -75 11 -104 75 -169 93
-96 187 -129 223 -78 29 42 53 144 75 318 38 317 106 611 223 974 126 389 173
515 305 826 38 90 86 204 106 253 20 48 52 120 71 158 19 39 35 80 35 93 0 40
-71 107 -162 153 -103 53 -119 51 -186 -27 -269 -309 -557 -703 -744 -1016
-135 -227 -360 -653 -463 -877 -27 -59 -51 -106 -53 -104 -10 11 142 507 243
791 31 88 74 210 95 270 105 301 195 519 326 794 41 85 74 162 74 172 0 32
-94 122 -174 167 -122 67 -122 67 -252 -95 -470 -588 -790 -1089 -1153 -1810
-40 -79 -74 -143 -76 -143 -18 0 271 776 498 1336 133 329 155 413 139 524
-19 126 -104 238 -227 296 -67 32 -166 55 -230 53 -16 0 -61 -7 -100 -14z"/>
<path d="M7854 4335 c-10 -8 -35 -15 -54 -15 -72 -1 -167 -67 -206 -143 -10
-17 -19 -64 -22 -102 -4 -58 0 -80 18 -123 23 -52 99 -132 126 -132 7 0 29
-13 47 -30 40 -35 65 -38 100 -10 14 11 31 20 38 20 7 0 37 14 67 31 l55 31
124 -11 c68 -6 138 -10 156 -10 30 2 -39 10 -200 24 l-72 7 30 53 c35 62 48
146 30 196 -6 18 -10 33 -8 35 1 1 157 -35 347 -80 388 -94 386 -93 377 -175
-3 -28 -13 -52 -29 -68 l-24 -24 -187 16 c-103 9 -197 15 -209 13 -13 -2 71
-11 186 -21 186 -15 212 -16 232 -2 12 8 25 24 29 35 4 14 13 19 28 16 12 -3
45 -8 72 -11 249 -31 412 -102 450 -197 38 -96 -56 -186 -211 -203 -57 -7 -63
-6 -95 22 -237 202 -571 306 -881 274 -62 -7 -149 -21 -193 -32 -139 -36 -315
-117 -405 -189 -33 -26 -46 -30 -101 -30 -83 0 -228 -24 -302 -49 -94 -33
-155 -71 -215 -136 -78 -83 -105 -141 -110 -235 -9 -170 89 -292 269 -335 206
-48 407 6 934 250 451 209 692 266 990 235 157 -16 251 -41 360 -95 102 -51
240 -153 240 -177 0 -9 13 -30 28 -46 15 -15 27 -33 27 -38 0 -18 81 -89 98
-86 10 1 38 -19 66 -48 27 -28 54 -49 60 -47 24 8 15 36 -29 85 -33 37 -45 57
-40 71 4 15 -11 34 -70 87 -42 37 -82 69 -90 70 -8 1 -36 20 -63 41 -190 157
-370 223 -657 239 -278 16 -492 -40 -965 -256 -270 -123 -383 -169 -521 -210
-297 -89 -531 -19 -580 175 -27 106 13 218 108 305 88 81 215 128 382 144 l74
8 -72 -79 c-120 -129 -205 -268 -260 -427 -36 -102 -36 -101 48 -112 71 -9
168 1 267 27 l81 21 22 54 c58 138 207 278 359 335 35 13 23 3 -70 -61 -85
-57 -196 -168 -252 -252 -43 -62 -35 -68 46 -36 42 18 67 36 96 73 22 28 61
65 87 84 50 36 145 85 151 78 2 -2 -26 -24 -64 -50 -37 -25 -85 -65 -107 -88
-51 -53 -44 -51 178 53 304 142 489 209 672 245 111 21 375 24 483 4 40 -7 76
-11 78 -8 3 3 -11 23 -31 46 l-37 40 29 6 c120 25 181 58 223 121 50 74 22
184 -62 247 -77 58 -217 104 -383 127 -121 16 -123 17 -130 49 -3 16 -12 34
-19 40 -7 6 -172 50 -367 97 -195 47 -356 91 -358 97 -9 26 -160 167 -178 167
-10 0 -28 -7 -39 -15z m89 -38 c72 -147 -25 -538 -131 -525 -14 2 -27 9 -30
16 -3 9 3 11 21 7 22 -6 29 -1 51 32 68 103 105 319 75 439 -10 38 -16 46 -40
51 -35 7 -27 25 9 21 20 -2 32 -13 45 -41z m-164 -845 c-184 -108 -342 -267
-440 -444 -35 -65 -38 -43 -4 30 60 128 179 269 298 351 48 33 184 101 202
101 5 0 -20 -17 -56 -38z m101 -66 c0 -3 -27 -21 -60 -41 -144 -87 -285 -229
-361 -362 -40 -69 -49 -61 -15 13 66 143 193 274 339 349 88 45 97 49 97 41z
m1849 -425 c11 -15 17 -31 14 -35 -9 -9 -64 45 -57 56 9 15 22 9 43 -21z m78
-70 c29 -35 31 -40 17 -52 -14 -11 -21 -8 -51 24 -28 31 -32 41 -22 53 16 20
20 18 56 -25z m42 -85 c9 -10 9 -16 1 -21 -12 -7 -40 11 -40 26 0 14 26 10 39
-5z m31 -35 c0 -12 -20 -25 -27 -18 -7 7 6 27 18 27 5 0 9 -4 9 -9z m28 -33
c7 -7 12 -18 12 -25 0 -10 -6 -10 -25 3 -14 9 -22 20 -19 25 7 12 18 11 32 -3z"/>
<path d="M8176 3995 c-4 -16 -16 -48 -26 -69 -11 -22 -19 -40 -18 -41 2 -1
129 -12 283 -24 154 -12 295 -24 313 -27 30 -5 34 -2 47 30 20 48 19 52 -7 21
l-23 -26 -227 25 c-277 31 -301 39 -325 111 l-11 30 -6 -30z"/>
<path d="M4788 3618 c-25 -20 -243 -557 -321 -790 -105 -314 -148 -500 -149
-646 0 -85 2 -99 31 -157 33 -67 97 -132 162 -166 95 -48 333 -90 405 -70 37
10 45 18 87 93 25 46 89 171 142 278 52 107 93 186 90 175 -34 -139 -76 -337
-85 -402 -19 -146 15 -259 105 -342 88 -81 202 -108 325 -77 78 20 127 56 158
116 32 64 29 111 -9 155 -30 33 -76 65 -96 65 -5 0 -7 -28 -5 -62 8 -142 -97
-232 -214 -183 -53 22 -68 67 -61 185 16 302 142 776 342 1290 128 328 121
306 106 324 -26 31 -152 86 -198 86 -50 0 -41 13 -133 -205 -23 -55 -80 -179
-126 -276 -46 -97 -127 -275 -179 -395 -120 -273 -282 -598 -314 -630 -34 -35
-62 -39 -127 -18 -69 22 -113 64 -138 134 -34 93 -9 277 67 510 60 182 178
487 257 665 76 171 110 266 100 284 -24 46 -185 89 -222 59z"/>
<path d="M8735 3180 c-164 -21 -359 -87 -635 -215 -80 -37 -181 -83 -225 -101
-44 -19 -91 -47 -104 -62 -14 -17 -21 -20 -17 -9 3 9 4 17 2 17 -2 0 -45 -16
-96 -35 -164 -64 -272 -88 -395 -89 -60 -1 -129 2 -152 6 l-41 8 -8 -67 c-8
-81 1 -232 22 -329 75 -364 317 -682 641 -843 101 -50 198 -84 303 -107 104
-23 381 -26 475 -5 378 83 677 307 844 631 167 322 185 672 52 1016 -17 44
-37 88 -43 97 -17 22 -112 55 -213 73 -101 18 -318 26 -410 14z m-323 -221
c207 -69 331 -270 298 -481 -37 -239 -273 -412 -505 -369 -238 43 -398 261
-364 496 23 163 149 310 308 359 71 22 190 20 263 -5z m376 -711 c-36 -103
-135 -200 -246 -238 l-27 -10 29 23 c98 74 153 126 199 188 28 38 52 69 54 69
1 0 -3 -15 -9 -32z m108 -61 c-26 -64 -96 -156 -149 -199 -51 -40 -154 -94
-163 -85 -3 2 25 23 61 47 72 47 167 144 222 226 40 60 52 65 29 11z m104 -62
c-62 -144 -204 -278 -355 -335 -38 -14 -28 -5 67 60 92 62 201 174 259 265 23
36 43 64 45 62 3 -2 -5 -26 -16 -52z m107 -59 c-73 -158 -219 -304 -373 -372
-78 -34 -87 -30 -20 11 159 96 294 230 380 378 37 63 45 53 13 -17z m109 -40
c-79 -178 -251 -350 -433 -433 -59 -27 -85 -25 -31 3 160 82 349 266 443 432
46 81 57 80 21 -2z"/>
<path d="M8185 2891 c-121 -32 -220 -131 -254 -254 -18 -64 -10 -179 17 -239
29 -65 100 -139 169 -174 53 -26 67 -29 158 -29 90 0 106 3 157 29 69 35 128
94 165 166 25 50 28 65 28 155 0 95 -2 103 -34 163 -64 118 -168 183 -301 188
-41 2 -88 0 -105 -5z m133 -349 c6 -55 -68 -69 -88 -16 -12 30 -5 49 23 62 31
14 61 -7 65 -46z"/>
<path d="M6014 3067 c-198 -42 -328 -186 -341 -377 -13 -184 61 -352 230 -521
174 -174 375 -271 590 -286 48 -3 87 -8 87 -11 0 -3 -30 -80 -66 -171 -255
-643 -464 -1207 -464 -1258 0 -31 43 -78 94 -102 106 -52 352 -71 476 -37 180
50 391 189 609 404 159 157 384 437 460 574 39 69 41 131 5 136 -16 2 -42 -20
-105 -90 -280 -313 -489 -475 -706 -549 -135 -46 -340 -71 -409 -51 -24 8 -45
-51 347 982 l184 485 -1 120 c0 104 -3 129 -26 187 -41 108 -87 176 -183 274
-182 183 -405 289 -633 299 -49 3 -114 -1 -148 -8z"/>
</g>
</svg>
